<?xml version="1.0" encoding="UTF-8"?>
<svg xmlns="http://www.w3.org/2000/svg" viewBox="0 0 64 64">
  <defs>
    <linearGradient id="bg" x1="0" x2="1" y1="0" y2="1">
      <stop offset="0" stop-color="#5ad1ff"/>
      <stop offset="1" stop-color="#38b48b"/>
    </linearGradient>
    <linearGradient id="bell" x1="0.2" x2="0.8" y1="0" y2="1">
      <stop offset="0" stop-color="#e8ffff"/>
      <stop offset="1" stop-color="#9be7ff"/>
    </linearGradient>
  </defs>
  <rect width="64" height="64" rx="12" fill="url(#bg)"/>
  <!-- Jellyfish bell -->
  <path d="M16,30 C16,18 26,10 32,10 C38,10 48,18 48,30 C48,32 46,34 44,34 L20,34 C18,34 16,32 16,30 Z"
        fill="url(#bell)" stroke="#77cfe6" stroke-width="1.2"/>
  <!-- Fringe -->
  <path d="M20,34 Q22,36 24,34 Q26,36 28,34 Q30,36 32,34 Q34,36 36,34 Q38,36 40,34 Q42,36 44,34"
        fill="none" stroke="#77cfe6" stroke-width="1.2" stroke-linecap="round"/>
  <!-- Tentacles -->
  <path d="M24,34 C22,40 26,44 24,50" fill="none" stroke="#ffffff" stroke-opacity="0.85" stroke-width="1.6" stroke-linecap="round"/>
  <path d="M28,34 C26,40 30,45 28,51" fill="none" stroke="#ffffff" stroke-opacity="0.8" stroke-width="1.6" stroke-linecap="round"/>
  <path d="M32,34 C31,41 35,46 33,52" fill="none" stroke="#ffffff" stroke-opacity="0.85" stroke-width="1.6" stroke-linecap="round"/>
  <path d="M36,34 C35,40 39,45 37,50" fill="none" stroke="#ffffff" stroke-opacity="0.8" stroke-width="1.6" stroke-linecap="round"/>
  <path d="M40,34 C39,41 43,45 41,51" fill="none" stroke="#ffffff" stroke-opacity="0.85" stroke-width="1.6" stroke-linecap="round"/>
</svg>


